<?xml version="1.0" encoding="UTF-8"?>
<svg viewBox="0 0 325 418.75" xmlns="http://www.w3.org/2000/svg">
 <path d="m159.07 414.39c-6.6433-1.2983-30.322-2.3879-39.322-1.8094-11.793 0.75792-46.474 0.72226-50.792-0.05222-6.1004-1.0941-5.7915-0.82165-6.1918-5.4619-0.19844-2.3003-0.81359-6.6115-1.367-9.5804s-0.82856-5.6856-0.61142-6.0369c0.36804-0.59551 12.978-0.49884 21.266 0.16303 7.1904 0.5742 23.659 0.44481 31.493-0.24744 10.84-0.95785 38.442-0.37607 40.43 0.85214 0.70969 0.43862 34.284 0.44748 42.201 0.01114 8.6904-0.47896 10.661-0.45028 19.021 0.27686 11.929 1.0376 13.041 1.6256 10.959 5.7978-0.5721 1.1468-0.98115 3.5618-0.98115 5.7926 0 3.345-1.5605 9.5999-2.6725 10.712-0.2101 0.21009-1.3084 0.05688-2.4406-0.34048s-7.11-0.87564-13.284-1.0628c-8.8757-0.26913-11.813-0.14957-14.032 0.5712-3.2287 1.0488-28.819 1.3641-33.676 0.41494zm54.879-26.515c-1.2005-0.43891-3.7964-0.81937-5.7686-0.84546l-3.5859-0.04745 0.00384-3.274c0.00211-1.8007 0.42306-4.0779 0.93545-5.0603s0.9316-2.8906 0.9316-4.2405 0.37418-3.212 0.83152-4.1382 0.90352-3.0826 0.99151-4.792 0.48287-3.6738 0.87751-4.3654c0.64189-1.1249 1.1759-3.8596 2.8026-14.354 0.26586-1.715 0.8202-3.7311 1.2319-4.4803s0.75844-2.2927 0.7706-3.43 0.42316-2.7694 0.91334-3.6269c0.49659-0.86868 0.90104-3.2512 0.91335-5.3804 0.01512-2.6142 0.31759-4.0666 0.95754-4.5977 0.57467-0.47693 0.93545-1.845 0.93545-3.5473 0-1.524 0.28178-3.2975 0.62618-3.941s1.0302-3.7822 1.5241-6.9748 1.3484-7.7692 1.899-10.17 1.2084-6.2562 1.4616-8.5672 0.80071-4.542 1.2166-4.9579 0.75612-2.2574 0.75612-4.0923 0.38182-4.094 0.8485-5.0202 1.0278-3.9002 1.2471-6.6089 0.64197-5.2344 0.93947-5.6127 0.69488-2.4742 0.88305-4.6576 0.64643-4.2741 1.0184-4.646 0.68617-2.2337 0.69833-4.1374 0.42315-4.1627 0.91334-5.0202 0.90119-3.0002 0.91334-4.7615 0.42117-4.5677 0.90891-6.2363c1.0029-3.431 2.0286-9.8142 2.8679-17.848 0.31375-3.0031 0.86013-6.0015 1.2142-6.663s0.65044-2.414 0.65862-3.8943 0.30717-3.814 0.66441-5.1859 0.84165-4.1783 1.0765-6.2363l0.42694-3.7418 4.6772-0.16735c4.2148-0.1508 4.8622-0.01235 6.5481 1.4005 1.7414 1.4593 1.7953 1.6268 0.77953 2.4188-0.73121 0.57016-1.0914 1.7157-1.0914 3.4714 0 1.4412-0.40223 3.936-0.89384 5.5439-1.397 4.5692-1.6427 8.871-0.53098 9.2976 0.50989 0.19567 1.1092 0.0931 1.3318-0.22793 0.60216-0.86828 9.3397-6.5585 12.566-8.1832 1.5435-0.77735 3.6482-1.9509 4.6772-2.6078s2.9934-1.8041 4.3654-2.5493 2.7189-1.7465 2.9932-2.2253 0.79518-0.87046 1.1575-0.87046 1.7218-0.8419 3.021-1.8709 2.7786-1.8709 3.2874-1.8709 1.2746-0.42095 1.7016-0.93544 1.2543-0.93545 1.8385-0.93545c1.1271 0 3.7741 2.4613 3.7741 3.5094 0 0.34247 0.8419 1.4293 1.8709 2.4151 1.0545 1.0103 1.8709 2.4413 1.8709 3.2794 0 0.81782 0.42095 1.9079 0.93544 2.4224s0.93545 1.1678 0.93545 1.4518c0 0.65732-13.174 10.331-15.591 11.448-0.5145 0.23786-1.7774 0.98649-2.8063 1.6636s-2.4322 1.5201-3.1182 1.8733-2.0892 1.184-3.1182 1.8462-3.1337 1.8446-4.6772 2.6275-3.9289 2.1255-5.3008 2.9835c-4.002 2.5027-4.9153 3.052-6.2363 3.7506-0.686 0.36281-2.0892 1.2126-3.1182 1.8884s-2.4322 1.4813-3.1182 1.7901c-2.0933 0.94206-3.2532 2.7521-3.6487 5.6935-0.63654 4.7341-2.0268 10.842-2.7942 12.276-0.40085 0.74899-0.72881 2.7974-0.72881 4.5519s-0.43242 4.0263-0.96093 5.0484-0.83149 2.0677-0.67329 2.3236-0.12906 2.4226-0.63837 4.8148-1.1507 6.1735-1.4254 8.403-0.80224 4.7552-1.1724 5.6127-0.85267 3.7321-1.0723 6.388-0.65615 4.9877-0.97009 5.1817-0.57082 1.2501-0.57082 2.3469-0.30338 2.9745-0.67418 4.1727-0.90687 3.8624-1.1913 5.9204c-1.0384 7.5143-1.9697 12.537-2.8484 15.363-0.49433 1.5895-0.9005 4.2555-0.90262 5.9245s-0.42306 3.8383-0.93544 4.8207-0.93333 3.3678-0.93545 5.3008-0.42306 4.3184-0.93544 5.3009-0.9316 3.3844-0.9316 5.3376c0 2.1571-0.35946 4.0266-0.91562 4.7618-0.50358 0.6658-0.92453 2.5478-0.93544 4.1822s-0.41834 4.5811-0.9054 6.5481c-1.1895 4.8038-2.1185 9.4272-3.0996 15.425-1.2501 7.6432-1.6661 8.1713-5.3693 6.8174zm-31.026-0.96297c-1.0304-1.0615-0.99143-6.3105 0.07848-10.557 0.4719-1.8728 1.0308-5.594 1.2419-8.2692s0.66694-5.393 1.0129-6.0394 0.64569-3.088 0.66614-5.4257 0.29952-5.6537 0.62017-7.3686c1.5991-8.5528 2.6271-15.502 3.0459-20.591 0.25457-3.0929 0.78832-6.2316 1.1861-6.9748s0.72327-3.135 0.72327-5.315 0.42095-5.5797 0.93545-7.555 0.93544-4.8308 0.93544-6.3455 0.39181-3.9566 0.87071-5.4263 1.0094-5.1321 1.1788-8.1386 0.58469-5.8128 0.92271-6.2363 0.74694-2.9347 0.90875-5.5805 0.57938-5.1715 0.92796-5.6127 0.81589-3.2828 1.0385-6.3147 0.68177-6.0303 1.0204-6.663 0.6157-2.9484 0.6157-5.1459 0.41791-5.3731 0.9287-7.0568 0.93172-4.4757 0.93544-6.2044 0.4277-4.7592 0.94219-6.7344 0.93545-5.0529 0.93545-6.8392 0.29136-4.2281 0.64746-5.4263 0.79651-4.9849 0.97867-8.4149 0.73269-7.8203 1.2234-9.7563 0.89224-5.02 0.89224-6.8534c0-4.4557 1.7186-8.6419 3.5491-8.645 0.7515-0.00128 1.5589 0.30923 1.7943 0.69002 0.2424 0.39222 1.2838 0.55347 2.4023 0.37196 1.0859-0.17622 3.2252-0.05094 4.7538 0.27839s4.4536 0.86789 6.4997 1.1968c4.287 0.68911 5.0568 1.2156 4.1582 2.8437-0.35358 0.64068-0.81379 2.4913-1.0227 4.1126s-0.64422 3.1111-0.9674 3.3109-0.58759 2.8133-0.58759 5.808-0.42095 7.061-0.93545 9.0363-0.94539 4.9107-0.95755 6.5232-0.42315 3.6334-0.91334 4.4909-0.90119 3.0508-0.91334 4.8741-0.30296 3.8398-0.64623 4.4812-0.90043 3.8309-1.2382 7.0878-0.89226 7.1336-1.2323 8.615c-1.3655 5.9486-2.0253 9.7853-2.5008 14.542-0.27428 2.744-0.793 5.8309-1.1527 6.8599s-0.9711 4.116-1.3586 6.8599-0.97598 6.9184-1.3078 9.2765-0.87495 4.7952-1.2071 5.4158-0.60385 2.6846-0.60385 4.5866-0.39781 4.5164-0.88402 5.8096-1.0218 4.1157-1.1902 6.2722-0.57397 4.2613-0.90124 4.6772-0.77093 2.5231-0.98591 4.6827-0.67447 4.4563-1.0211 5.1039-0.63018 2.4245-0.63018 3.9487-0.37823 3.7175-0.8405 4.8741-0.90328 3.6464-0.98003 5.5329-0.54042 4.0515-1.0304 4.8112-0.89259 2.5838-0.8947 4.0536-0.42307 3.4762-0.93545 4.4586-0.9316 3.1391-0.9316 4.7925-0.29555 3.7836-0.65678 4.7337-0.90605 3.5642-1.2107 5.8092-0.7413 4.7833-0.97027 5.6408-0.66448 3.7922-0.96781 6.5217c-0.30791 2.7707-0.9429 5.354-1.4376 5.8487-1.2414 1.2414-13.454 1.7916-14.557 0.65577zm-112.71-1.1673c-0.51942-0.57395-0.9444-1.9152-0.9444-2.9806s-0.25677-2.6124-0.57061-3.4379-0.65831-4.2815-0.76552-7.6801-0.52639-6.8809-0.93152-7.7384-0.87694-4.7864-1.0485-8.7308-0.6181-8.1521-0.99239-9.3503-0.68053-4.577-0.68053-7.5084-0.37833-6.8621-0.84073-8.7349-0.90705-6.7652-0.9881-10.872-0.36515-7.8954-0.63132-8.419-0.52849-1.9342-0.58295-3.1347c-0.29332-6.4663-1.312-17.546-1.8634-20.268-0.34748-1.715-0.6485-4.8538-0.66895-6.9752s-0.3411-4.6471-0.71257-5.6127-0.93514-4.9829-1.2526-8.9273-0.72544-8.0136-0.90661-9.0426-0.59131-4.5369-0.91141-7.7954-0.71033-6.7664-0.86716-7.7954-0.51603-3.4144-0.79822-5.3008c-0.50953-3.4062-0.54859-3.4559-5.6349-7.1718-7.049-5.1497-12.241-8.9883-15.338-11.34-1.4381-1.092-2.8705-2.004-3.1831-2.0268s-2.698-1.6584-5.3009-3.6346-6.2759-4.6284-8.1624-5.8936-4.5393-3.4368-5.8951-4.8258-2.9783-2.5254-3.6054-2.5254c-2.1896 0-2.1906-1.759-0.0029-5.0725 6.3285-9.5853 6.5956-9.8976 7.6486-8.9447 0.55973 0.50655 1.3142 0.92099 1.6765 0.92099s2.1928 1.2628 4.0676 2.8063 3.6968 2.8063 4.0489 2.8063 0.98941 0.42095 1.4164 0.93545 1.2543 0.93544 1.8386 0.93544 1.7425 0.73136 2.5741 1.6252 2.0731 1.8781 2.7591 2.1872c2.9083 1.3102 8.3388 4.5901 11.405 6.8879 2.538 1.9023 3.7587 2.4268 5.3008 2.2778 1.9664-0.19009 1.9994-0.24533 1.7808-2.9794-0.12252-1.5321-0.47331-3.4447-0.77954-4.2501-0.63107-1.6599-0.75166-8.2569-0.17823-9.7512 0.30367-0.79136 1.4163-0.98645 5.626-0.98645 6.3762 0 6.1513-0.3312 7.0682 10.408 0.35696 4.1808 0.92921 8.3384 1.2717 9.2391s0.62267 3.462 0.62267 5.6917 0.32954 4.667 0.7323 5.4162 0.80101 2.625 0.88498 4.1685 0.4856 5.6127 0.8925 9.0426 0.95428 9.3233 1.2164 13.096 0.78707 7.9825 1.1666 9.3544 0.69789 4.7396 0.70738 7.4836 0.43223 7.5147 0.93944 10.602 0.92873 7.4368 0.93675 9.6663 0.43386 6.8355 0.94633 10.236 0.93177 7.9788 0.93177 10.175 0.30947 4.5713 0.6877 5.278 0.93234 4.2664 1.2314 7.9103 0.81094 8.1688 1.1377 10.055 0.6145 6.3644 0.63954 9.9509 0.45151 9.1992 0.94772 12.473c1.9764 13.038 2.5303 18.175 3.0287 28.091 0.09482 1.8865 0.52825 4.0733 0.96318 4.8595s0.70438 2.4701 0.5988 3.7418l-0.19198 2.3122-5.7596 0.059c-4.6445 0.04758-5.9425-0.14304-6.704-0.98455zm82.205 0.25166c-0.48955-1.2758 0.35005-29.587 0.90347-30.464 0.23128-0.36682 0.60626-6.5602 0.8333-13.763s0.72464-13.886 1.1058-14.852c0.40671-1.0303 0.70217-6.054 0.7152-12.161 0.01468-6.8758 0.32867-11.674 0.9257-14.147 0.58759-2.4334 0.92738-7.4487 0.97182-14.343 0.03758-5.8309 0.31034-13.268 0.60614-16.526s0.81744-13.923 1.1592-23.698 0.78618-19.317 0.98761-21.203 0.51828-9.7442 0.70414-17.462 0.53992-15.014 0.78681-16.214l0.44887-2.1827h9.6341c5.2987 0 12.842 0.14031 16.763 0.31181 7.1113 0.31105 7.1299 0.31596 7.5766 1.9935 0.28854 1.0836 0.1445 2.0817-0.40497 2.8063-0.61569 0.81196-0.8583 3.3467-0.87262 9.1169-0.01233 4.9711-0.30079 8.5072-0.76309 9.3544-0.40879 0.7492-0.84179 4.0282-0.96221 7.2867s-0.50234 7.3276-0.84868 9.0426-0.88799 6.2051-1.2037 9.9781-0.74858 7.8422-0.96204 9.0426-0.63913 4.7084-0.94596 7.7954-0.84134 6.2573-1.1878 7.0452-0.62994 3.4651-0.62994 5.9494-0.42095 6.133-0.93544 8.1083-0.93545 5.4832-0.93545 7.7954-0.38634 5.7362-0.85852 7.609-1.0192 5.8525-1.2156 8.8437-0.64454 5.9757-0.99586 6.6322-0.67697 3.5411-0.72367 6.4103c-0.04818 2.9605-0.47803 6.1608-0.99386 7.3995-0.52419 1.2588-0.91206 4.2066-0.91628 6.964-0.00475 3.1061-0.31085 5.1818-0.87369 5.9245-0.57129 0.75383-0.88239 2.9487-0.91337 6.4441-0.02585 2.9155-0.33976 6.5637-0.6976 8.1072s-0.88305 5.9374-1.1672 9.7642-0.82102 7.5268-1.1931 8.2221-0.68095 2.8963-0.68631 4.891-0.41631 5.3107-0.91323 7.3686-0.91349 4.6538-0.9257 5.7686l-0.02222 2.0268h-9.9976c-8.5381 0-10.053-0.1439-10.376-0.9857zm-61.197-0.38628c-0.47764-0.47765-0.74836-2.9043-0.74836-6.7081 0-3.2779-0.29943-6.9402-0.66541-8.1384s-0.90737-5.6865-1.2031-9.974-0.817-9.4312-1.1584-11.431-0.69996-7.1911-0.79683-11.537-0.52669-8.8841-0.95516-10.085-0.79136-4.6246-0.80641-7.609-0.40247-6.9134-0.86091-8.7308-0.89859-6.7933-0.9781-11.057c-0.09801-5.2566-0.43202-8.3088-1.0374-9.4794-0.6305-1.2193-0.89279-3.9461-0.89279-9.282 0-4.2012-0.29797-8.1123-0.67117-8.8096-0.36915-0.68975-0.82753-4.951-1.0186-9.4694s-0.61203-8.5504-0.93537-8.96-0.83467-3.9175-1.1363-7.7954-0.81782-8.7344-1.1472-10.792-0.62248-6.0387-0.65142-8.8461-0.35287-5.894-0.71983-6.8592-0.90836-5.1228-1.2031-9.2391-0.81967-8.8874-1.1665-10.602-0.64735-5.1227-0.6678-7.5728c-0.03008-3.6053 0.16107-4.5307 1.0026-4.8536 0.57185-0.21945 1.3296-0.10915 1.6838 0.24509 0.3827 0.38271 4.248 0.64407 9.5252 0.64407 4.9405 0 9.0437 0.26305 9.2475 0.59284s0.53325 4.4654 0.73717 9.1985 0.65087 9.1419 0.99319 9.7972 0.83664 5.5664 1.0985 10.914 0.76903 10.459 1.1271 11.36 0.71058 6.3733 0.78337 12.161 0.37587 11 0.67352 11.583 0.83503 7.0376 1.1942 14.343 0.76495 14.266 0.90172 15.466 0.40531 6.2519 0.59673 11.225 0.60998 10.867 0.93012 13.096 0.56017 5.3164 0.53341 6.8599c-0.1164 6.7123 0.91744 23.752 1.6837 27.752 0.46002 2.401 0.86932 8.4263 0.90953 13.39 0.05454 6.7299 0.29268 9.2668 0.9367 9.9785 0.5558 0.61415 0.67054 1.2992 0.32194 1.9221-0.30918 0.55246-0.29664 2.0244 0.0292 3.4296 0.8705 3.7539 0.74977 13.102-0.17893 13.855-0.51987 0.42156-2.0898 0.43082-4.7129 0.0278-2.699-0.41466-4.5386-0.39337-5.8616 0.06787-2.4979 0.87077-3.8097 0.84966-4.7355-0.07617zm23.902-1.2646c-0.14621-0.43634-0.42416-5.7044-0.61765-11.707s-0.4813-12.036-0.6396-13.408-0.46414-9.0892-0.67965-17.149c-0.29042-10.861-0.62285-15.101-1.2843-16.38-0.71327-1.3793-0.75267-2.2448-0.19625-4.3112 0.48727-1.8096 0.5016-2.9762 0.04778-3.8875-0.3844-0.77189-0.75873-8.7929-0.91934-19.699-0.14902-10.118-0.58146-22.186-0.96098-26.816s-0.77025-12.769-0.86828-18.085-0.40201-10.027-0.67553-10.469-0.30775-1.9244-0.07607-3.2956c0.25081-1.4846 0.15264-2.8168-0.24268-3.2932s-0.70522-4.8334-0.76744-10.908c-0.05695-5.5594-0.35505-10.263-0.66245-10.453s-0.55771-1.9368-0.55627-3.8817-0.14406-7.6804-0.32334-12.745l-0.32598-9.209 16.402 0.16633 16.402 0.16632-0.12631 4.0536c-0.06948 2.2295-0.16861 5.5971-0.2203 7.4836s0.15293 6.3766 0.4547 9.9781 0.54121 44.293 0.53211 90.426l-0.01657 83.878-11.707 0.16972c-9.0404 0.13106-11.768-0.01101-11.973-0.62363zm131.88-196.69c-1.8865-0.43571-4.9923-0.89843-6.9018-1.0283s-3.8502-0.46991-4.3127-0.75572c-1.1843-0.73192-22.935-1.7902-33.375-1.6238-19.887 0.31692-29.713 0.25213-36.794-0.24264-7.622-0.53257-26.525-0.77313-35.547-0.45237-11.149 0.39635-79.835-0.56728-80.396-1.1279-0.32466-0.32465-0.79326-2.2092-1.0413-4.1878s-0.62793-4.72-0.84411-6.092c-0.67144-4.2613-0.93935-4.1902 15.316-4.0651 44.448 0.34201 56.694 0.57517 59.793 1.1384 1.8865 0.34289 6.3766 0.49389 9.9781 0.33557s7.1094-0.25482 7.7954-0.21444c1.6283 0.09585 17.778 0.39702 31.182 0.58149 5.8309 0.08025 19.582 0.12489 30.558 0.09921 11.196-0.0262 21.599 0.23718 23.698 0.59998 2.058 0.35568 6.5481 0.85857 9.9781 1.1176s6.8493 0.80736 7.5985 1.2186 2.1524 0.76016 3.1182 0.7753c3.0274 0.04745 7.9826 1.6188 8.1749 2.5924 0.10046 0.50858-0.25033 1.284-0.77954 1.7232-0.6733 0.55878-0.96506 1.9459-0.97174 4.6199-0.01412 5.6512-0.7622 6.2505-6.2268 4.9884zm-21.881-21.269c-3.2815-0.20909-3.544-0.34831-4.5213-2.3978-0.57065-1.1967-1.0376-3.4381-1.0376-4.981s-0.42095-3.8127-0.93545-5.044-0.93544-3.0121-0.93544-3.9572-0.39363-2.045-0.87472-2.4443-1.0026-1.907-1.159-3.3504c-0.30928-2.8555-2.9256-9.9246-4.7798-12.914-0.31906-0.51449-0.7389-1.3564-0.93296-1.8709-0.44384-1.1767-1.6411-3.0083-2.8553-4.3682-0.5145-0.57621-2.0039-2.3573-3.3097-3.9579-2.9892-3.664-6.6491-5.6212-9.7179-5.1967-2.9241 0.40444-7.6093 1.6686-8.7995 2.3744-0.51449 0.30508-1.3564 0.72035-1.8709 0.92281-1.5812 0.62227-5.2494 2.2733-6.2363 2.8069-0.51449 0.2782-3.0402 1.5619-5.6127 2.8526s-5.6998 3.1268-6.9497 4.0801-2.667 1.7333-3.1493 1.7333-1.19 0.31314-1.5727 0.69586c-0.80301 0.803-2.0103 1.5117-6.2046 3.642-1.6584 0.84232-3.5766 2.0167-4.2626 2.6098-1.9945 1.7243-5.4353 4.1286-7.7954 5.4472-1.2005 0.67069-3.292 2.3658-4.6479 3.7668s-2.7902 2.5474-3.1875 2.5474c-1.1401 0-6.7628-5.7337-9.3145-9.4984l-2.4825-3.6621c-1.0224-1.5081-3.4779-4.5903-5.4568-6.8494s-3.5979-4.3807-3.5979-4.7148-0.78391-1.4324-1.742-2.4408c-2.3542-2.4776-9.4833-11.96-9.4833-12.613 0-0.28806-0.8419-1.3303-1.8709-2.3162s-1.8709-2.1013-1.8709-2.4788-0.83049-1.658-1.8455-2.8456-1.857-2.6202-1.8709-3.1838-0.4463-1.1862-0.96079-1.3836-0.93545-0.81849-0.93545-1.3801-0.8419-2.0842-1.8709-3.3834-1.8709-2.7786-1.8709-3.2874-0.42095-1.2746-0.93544-1.7016c-1.2063-1.0011-1.2063-3.0727 0-3.4495 2.1594-0.67463 3.8677-1.6669 7.251-4.2117 6.5151-4.9006 10.091-7.3059 10.863-7.3059 0.49882 0 0.90694-0.23398 0.90694-0.51997s1.6136-1.6152 3.5859-2.9538c3.2896-2.2327 12.37-8.7455 18.614-13.35 1.4056-1.0366 2.7504-1.8847 2.9886-1.8847s0.77196-0.28542 1.1862-0.63427c1.5188-1.2789 8.9363-6.5572 10.128-7.2067 9.0618-4.941 15.323-6.4419 18.102-4.3396 0.6658 0.50358 1.6012 0.92454 2.0788 0.93544s2.3464 1.2827 4.1531 2.8262 3.5224 2.8063 3.8128 2.8063 2.7234 2.1048 5.4066 4.6772 5.1009 4.6772 5.3725 4.6772 3.019 2.5959 6.1053 5.7686 6.6455 6.7508 7.9094 7.9513c3.5334 3.3561 8.0982 9.3482 9.583 12.579 0.7363 1.6022 1.6283 3.0921 1.9822 3.3109s0.64351 1.0484 0.64351 1.8436 0.42095 1.7953 0.93544 2.2223 0.93545 1.1743 0.93545 1.6607c0 1.3115 2.5907 4.5756 3.6316 4.5756 0.49641 0 1.496-0.64752 2.2213-1.4389 4.6949-5.1227 9.1203-10.345 9.1556-10.805 0.02277-0.29709 1.0011-1.803 2.1741-3.3465s3.1272-4.2984 4.3429-6.122c2.4829-3.7247 7.4994-8.8451 8.6656-8.8451 0.42131 0 2.5705-2.0066 4.7759-4.4592 6.6972-7.4476 7.9987-8.8733 9.8777-10.82 0.99335-1.029 3.5874-4.2031 5.7645-7.0535 7.0666-9.252 9.5184-12.211 13.535-16.333 2.1725-2.2295 4.4062-4.7552 4.9638-5.6127s2.0743-2.84 3.3706-4.4055 2.3568-3.0502 2.3568-3.2993c0-0.59247 2.6695-4.3951 3.274-4.6638 0.25725-0.11433 0.46773-1.1344 0.46773-2.2669 0-2.9295 2.4083-4.503 5.2022-3.3989 2.9579 1.1688 4.2345 2.5007 4.0258 4.2-0.14506 1.181-0.87168 1.7646-3.3384 2.6814-2.715 1.0091-3.6628 1.865-6.824 6.1625-2.0191 2.7448-3.8977 4.9906-4.1747 4.9906s-0.50368 0.35266-0.50368 0.78368-1.2584 2.185-2.7966 3.8977-2.801 3.4304-2.8063 3.8172-0.39691 1.0245-0.87007 1.4172-1.0161 1.493-1.2065 2.4451-1.0041 2.4192-1.8082 3.2601-2.195 2.6515-3.0908 4.0235-4.3957 5.4542-7.7773 9.0715c-5.8709 6.2801-12.753 13.888-16.972 18.762-1.0784 1.2458-1.9606 2.5353-1.9606 2.8656s-0.59278 1.1352-1.3173 1.7886c-1.3896 1.2532-9.0118 10.484-13.505 16.355-1.4638 1.9127-4.2638 5.1457-6.2221 7.1845-3.0493 3.1745-3.5606 4.0452-3.5606 6.0629 0 2.9044 1.8253 5.2038 3.6889 4.647 0.69948-0.20898 2.675-0.62545 4.3899-0.92547 4.7407-0.82934 8.5199-1.8352 10.696-2.8468 1.0808-0.50245 2.5681-0.91355 3.305-0.91355s2.1384-0.41292 3.1144-0.9176c1.2347-0.63851 3.6644-0.90429 7.988-0.87379 4.5434 0.03204 6.7318-0.22418 8.1417-0.95328 1.0605-0.54841 3.0294-0.9971 4.3753-0.9971s3.6402-0.42095 5.0984-0.93544 4.0027-0.93544 5.6543-0.93544 3.1601-0.25435 3.3522-0.56521 1.8223-0.7506 3.6227-0.97719 4.6765-0.79017 6.3915-1.2524 5.0899-0.84844 7.4998-0.85824c2.7134-0.01104 5.0878-0.38604 6.2363-0.98488 1.1677-0.60888 3.5048-0.96849 6.31-0.97091 4.087-0.00352 4.621-0.15851 6.4582-1.8747 2.6474-2.4731 5.0838-2.4944 6.8175-0.05964 0.70935 0.99619 1.2897 2.1257 1.2897 2.51 0 0.97852-3.1062 2.0533-4.7453 1.6419-0.75022-0.18829-2.1643 0.07505-3.1425 0.5852s-2.901 0.93232-4.273 0.93815-3.8721 0.4285-5.5559 0.93928-4.4034 0.9287-6.0436 0.9287-3.1387 0.25317-3.33 0.56261c-0.58623 0.94853-8.7974 3.1792-11.703 3.1792-1.5074 0-3.0766 0.33591-3.4872 0.74646s-2.2206 0.94642-4.0224 1.1908-4.3985 0.74369-5.7705 1.1095-4.2164 0.6719-6.3209 0.68008c-2.1527 0.00837-4.6077 0.42238-5.6127 0.94649-0.98245 0.51238-2.6662 0.93333-3.7418 0.93544s-2.7593 0.42307-3.7418 0.93545-3.0491 0.94225-4.5926 0.95527-3.3511 0.43571-4.0169 0.93929-2.2233 0.91561-3.4611 0.91561-2.5615 0.31088-2.9414 0.69083-2.611 0.83639-4.9579 1.0143-4.688 0.67996-5.2025 1.1157-1.4967 0.89431-2.1827 1.0191c-1.0925 0.19875-1.2702 0.79517-1.4318 4.8073-0.10246 2.5428-0.57015 5.1754-1.0514 5.9179-0.74247 1.1457-0.73836 1.5111 0.02865 2.548 0.53127 0.71823 0.89545 2.6528 0.89545 4.7568 0 2.3914 0.30462 3.799 0.93544 4.3226 0.5145 0.42699 0.94437 1.654 0.95528 2.7268s0.43186 2.4952 0.93544 3.161 0.91562 1.9667 0.91562 2.891 0.41922 2.4842 0.9316 3.4667 0.93333 2.7825 0.93544 4.0002 0.25491 2.4805 0.56177 2.8063 0.88491 1.9956 1.2846 3.7106 0.8829 3.7496 1.0739 4.5213c0.30348 1.2265 0.12208 1.3883-1.4405 1.2852l-5.2714-0.33989zm-129.23-0.55494c-0.06539-0.05896-4.0478-0.28928-8.8497-0.51181-23.081-1.0696-25.291-1.2589-25.895-2.2172-0.32436-0.5145-0.59404-1.4038-0.59929-1.9763s-0.47924-1.9756-1.0533-3.1182-1.416-2.8222-1.8709-3.7326-0.82714-2.1898-0.82714-2.843-0.41203-1.7325-0.91561-2.3983-0.92454-1.9479-0.93545-2.8492-0.44078-1.988-0.95528-2.415-0.93544-1.4092-0.93544-2.1827-0.38545-1.7262-0.85655-2.1172-1.0472-2.1484-1.2803-3.9054c-0.37319-2.8132-0.2481-3.3888 1.0478-4.8222 4.8494-5.3637 5.958-8.933 3.8953-12.541-1.8202-3.1841-1.2357-5.05 2.6391-8.4243 1.966-1.712 5.2634-4.6876 7.3276-6.6124s5.437-4.99 7.4949-6.8117 3.9662-3.6847 4.2405-4.1399 0.87136-0.82775 1.3268-0.82775 1.1774-0.42095 1.6044-0.93544 1.2626-0.93545 1.8569-0.93545c1.1365 0 6.2503 6.7321 6.2503 8.2283 0 0.47205-1.4436 2.1112-3.2081 3.6426s-3.6509 3.2755-4.1922 3.8757-1.3094 1.0914-1.7069 1.0914c-1.1972 0-3.989 4.1636-3.989 5.949 0 0.91677 0.8419 2.7298 1.8709 4.029s1.8709 2.7786 1.8709 3.2874 0.42095 1.2746 0.93544 1.7016 0.93544 1.0663 0.93544 1.4207 0.70125 1.5637 1.5583 2.6874 1.8505 2.6936 2.2076 3.4888c0.9935 2.2124 3.9072 7.4835 5.1726 9.3576 0.62223 0.92153 1.954 1.8562 2.9596 2.077 1.5209 0.33405 2.1792 0.05235 3.9155-1.6755 1.148-1.1424 3.1611-2.919 4.4735-3.9479s2.8974-2.362 3.5222-2.9622 1.3731-1.0914 1.6629-1.0914 1.0349-0.56127 1.6557-1.2473 1.561-1.2473 2.0893-1.2473c1.0644 0 4.4588 3.0072 4.4588 3.9501 0 0.57884 2.1957 3.3671 6.2203 7.8988 1.0661 1.2005 2.5583 2.9881 3.3158 3.9724s2.5701 3.0692 4.0278 4.6329 2.6504 3.1009 2.6504 3.416c0 0.51332-11.252 12.567-12.784 13.695-0.50556 0.37218-21.923 0.45584-22.332 0.08724zm-2.4575-31.085c-0.60025-0.82549-1.0914-1.7816-1.0914-2.1246s-0.8419-1.5455-1.8709-2.6721-1.8709-2.4217-1.8709-2.878-1.2152-2.709-2.7005-5.006-2.8796-4.6674-3.0986-5.2677-0.68753-1.0914-1.0413-1.0914-0.6432-0.38659-0.6432-0.85908-0.42095-1.2084-0.93544-1.6354-0.93544-1.2598-0.93544-1.8506c0-1.4391 2.136-3.2993 3.4873-3.0372 1.0025 0.19445 4.6872 4.5899 5.6658 6.7587 0.23214 0.5145 1.1384 2.058 2.014 3.43 2.4263 3.8021 3.0888 4.905 3.5586 5.9245 0.23709 0.5145 0.77298 1.3564 1.1909 1.8709s1.5125 2.3048 2.4325 3.9785l1.6727 3.0431-1.3887 1.4782c-1.7525 1.8655-3.0572 1.8473-4.4454-0.06182zm6.4202-9.6484c-2.0734-2.7237-3.7698-5.1386-3.7698-5.3663 0-0.41167-0.84646-1.7054-6.4336-9.8329-1.6065-2.3369-2.9208-4.7435-2.9208-5.348s0.72646-1.7795 1.6143-2.611l1.6143-1.5119 1.5433 1.8709c2.6375 3.1973 7.059 10.013 8.512 13.121 0.48741 1.0426 1.2818 2.3054 1.7652 2.8063 3.0256 3.1346 5.5305 6.8626 5.5305 8.2309 0 1.3415-2.1182 3.5934-3.38 3.5934-0.16815 0-2.0021-2.2285-4.0755-4.9522z"/>
</svg>
